<svg width="34" height="34" viewBox="0 0 34 34" fill="none" xmlns="http://www.w3.org/2000/svg">
<path d="M17 0.333496C7.96501 0.333496 0.333344 7.96516 0.333344 17.0002C0.333344 26.0352 7.96501 33.6668 17 33.6668C26.035 33.6668 33.6667 26.0352 33.6667 17.0002C33.6667 7.96516 26.035 0.333496 17 0.333496ZM17 8.66683C19.8783 8.66683 22 10.7868 22 13.6668C22 16.5468 19.8783 18.6668 17 18.6668C14.1233 18.6668 12 16.5468 12 13.6668C12 10.7868 14.1233 8.66683 17 8.66683ZM8.49001 24.9535C9.98501 22.7535 12.4783 21.2868 15.3333 21.2868H18.6667C21.5233 21.2868 24.015 22.7535 25.51 24.9535C23.38 27.2335 20.3583 28.6668 17 28.6668C13.6417 28.6668 10.62 27.2335 8.49001 24.9535Z" fill="#FFFFFF"/>
</svg>
